<svg xmlns="http://www.w3.org/2000/svg" xmlns:xlink="http://www.w3.org/1999/xlink" width="600" height="300"><defs><linearGradient id="a"><stop offset="0" style="stop-color:#f9f06b;stop-opacity:1"/><stop offset=".378" style="stop-color:#57e389;stop-opacity:1"/><stop offset="1" style="stop-color:#3584e4;stop-opacity:1"/></linearGradient><linearGradient xlink:href="#a" id="d" x1="79.665" x2="593.983" y1="149.906" y2="149.906" gradientUnits="userSpaceOnUse"/><linearGradient id="b"><stop offset="0" style="stop-color:#d5d3cf;stop-opacity:1"/><stop offset=".038" style="stop-color:#f6f5f4;stop-opacity:1"/><stop offset=".077" style="stop-color:#d5d3cf;stop-opacity:1"/><stop offset=".923" style="stop-color:#d5d3cf;stop-opacity:1"/><stop offset=".962" style="stop-color:#eeeeec;stop-opacity:1"/><stop offset="1" style="stop-color:#d5d3cf;stop-opacity:1"/></linearGradient><linearGradient id="c"><stop offset="0" style="stop-color:#f3f2f0;stop-opacity:1"/><stop offset="1" style="stop-color:#f9f8f7;stop-opacity:1"/></linearGradient><linearGradient xlink:href="#b" id="j" x1="19" x2="109.799" y1="97.289" y2="97.289" gradientTransform="matrix(1.14539 0 0 1.15061 -5.75 -9.183)" gradientUnits="userSpaceOnUse"/><linearGradient xlink:href="#b" id="k" x1="19" x2="109.799" y1="97.289" y2="97.289" gradientTransform="matrix(1.14539 0 0 1.15061 -5.75 -9.183)" gradientUnits="userSpaceOnUse"/><linearGradient xlink:href="#b" id="l" x1="19" x2="109.799" y1="97.289" y2="97.289" gradientTransform="matrix(1.14539 0 0 1.15061 -5.75 -9.183)" gradientUnits="userSpaceOnUse"/><linearGradient xlink:href="#b" id="m" x1="19" x2="109.799" y1="97.289" y2="97.289" gradientTransform="matrix(1.14539 0 0 1.15061 -5.75 -9.183)" gradientUnits="userSpaceOnUse"/><linearGradient xlink:href="#b" id="n" x1="19" x2="109.799" y1="97.289" y2="97.289" gradientTransform="matrix(1.14539 0 0 1.15061 -5.75 -9.183)" gradientUnits="userSpaceOnUse"/><filter id="f" width="1" height="1.005" x="0" y="0" color-interpolation-filters="sRGB"><feFlood flood-color="#000" flood-opacity=".2" result="flood"/><feComposite in="flood" in2="SourceGraphic" operator="in" result="composite1"/><feGaussianBlur in="composite1" result="blur"/><feOffset dy="3" result="offset"/><feComposite in="SourceGraphic" in2="offset" result="composite2"/></filter><filter id="g" width="1" height="1.005" x="0" y="0" color-interpolation-filters="sRGB"><feFlood flood-color="#000" flood-opacity=".2" result="flood"/><feComposite in="flood" in2="SourceGraphic" operator="in" result="composite1"/><feGaussianBlur in="composite1" result="blur"/><feOffset dy="3" result="offset"/><feComposite in="SourceGraphic" in2="offset" result="composite2"/></filter><filter id="h" width="1" height="1.005" x="0" y="0" color-interpolation-filters="sRGB"><feFlood flood-color="#000" flood-opacity=".2" result="flood"/><feComposite in="flood" in2="SourceGraphic" operator="in" result="composite1"/><feGaussianBlur in="composite1" result="blur"/><feOffset dy="3" result="offset"/><feComposite in="SourceGraphic" in2="offset" result="composite2"/></filter><filter id="i" width="1" height="1.005" x="0" y="0" color-interpolation-filters="sRGB"><feFlood flood-color="#000" flood-opacity=".2" result="flood"/><feComposite in="flood" in2="SourceGraphic" operator="in" result="composite1"/><feGaussianBlur in="composite1" result="blur"/><feOffset dy="3" result="offset"/><feComposite in="SourceGraphic" in2="offset" result="composite2"/></filter><filter id="e" width="1" height="1.005" x="0" y="0" color-interpolation-filters="sRGB"><feFlood flood-color="#000" flood-opacity=".2" result="flood"/><feComposite in="flood" in2="SourceGraphic" operator="in" result="composite1"/><feGaussianBlur in="composite1" result="blur"/><feOffset dy="3" result="offset"/><feComposite in="SourceGraphic" in2="offset" result="composite2"/></filter></defs><path d="M97.959 3.072c-11.585-.185-21.126 9.057-21.31 20.64-.187 11.586 9.053 21.127 20.638 21.313.771-.013 32.315.016 33.065.086 10.53.968 18.856 9.74 19.029 20.553.186 11.585-9.056 21.128-20.64 21.313H24.538a20.93 20.93 0 0 0-20.977 20.976A20.93 20.93 0 0 0 24.54 128.93h43.53c11.584-.186 21.127 9.055 21.312 20.64.186 11.585-9.056 21.128-20.64 21.313-11.586-.185-21.126 9.054-21.311 20.638 0 11.771 9.54 21.315 21.31 21.315h54.406c11.585-.186 21.125 9.054 21.311 20.639 0 11.77-9.54 21.312-21.31 21.312H92.47c-11.585-.185-21.127 9.057-21.313 20.64 0 11.772 9.543 21.311 21.313 21.311h356.295c11.585.186 21.126-9.053 21.312-20.638.185-11.585-9.055-21.127-20.64-21.313-.422.007-75.231 0-75.647-.017-11.011-.473-19.878-9.46-20.057-20.624 0-11.77 9.543-21.312 21.313-21.312H572.67c11.585.186 21.126-9.056 21.312-20.64 0-11.77-9.542-21.311-21.312-21.311h-62.996c-11.585.186-21.126-9.056-21.31-20.64-.187-11.586 9.053-21.127 20.638-21.313h7.8a20.93 20.93 0 0 0 20.975-20.977 20.93 20.93 0 0 0-20.974-20.976h-167.13c-11.584.186-21.125-9.054-21.31-20.64 0-11.77 9.542-21.314 21.313-21.314h83.99c11.584.186 21.127-9.053 21.313-20.638 0-11.77-9.543-21.313-21.313-21.313z" style="font-variation-settings:normal;display:inline;opacity:1;fill:url(#d);fill-opacity:1;stroke:none;stroke-width:5.87707;stroke-linecap:butt;stroke-linejoin:miter;stroke-miterlimit:4;stroke-dasharray:none;stroke-dashoffset:0;stroke-opacity:.85098;marker:none;stop-color:#000"/><rect width="355" height="90" x="120" y="105" rx="45" ry="45" style="fill:#fff;stroke:#3584e4;stroke-width:50;stroke-miterlimit:4;stroke-dasharray:none;stop-color:#000;opacity:.22"/><rect width="355" height="90" x="120" y="105" rx="45" ry="45" style="fill:#fff;stroke:#3584e4;stroke-width:30;stroke-miterlimit:4;stroke-dasharray:none;stop-color:#000;opacity:.3"/><rect width="355" height="90" x="120" y="105" rx="45" ry="45" style="fill:#fff;stroke:#3584e4;stroke-width:14;stroke-miterlimit:4;stroke-dasharray:none;stop-color:#000;opacity:.21"/><rect width="355" height="90" x="120" y="105" rx="45" ry="45" style="fill:#fff;stroke:none;stroke-width:5.49558;stroke-miterlimit:4;stroke-dasharray:none;stop-color:#000"/><path fill="none" d="M273.997 1174.322h128v128h-128z" style="display:inline;overflow:visible;visibility:visible;fill:#000;fill-opacity:0;fill-rule:nonzero;stroke:none;stroke-width:.5;marker:none;filter:url(#e);enable-background:accumulate" transform="translate(-37.997 -1088.698)"/><circle cx="492.819" cy="217.392" r="4.544" style="fill:#3584e4;stroke-width:.54956;stop-color:#000"/><circle cx="172.202" cy="239.2" r="8.278" style="fill:#fff;fill-opacity:.471128;stroke-width:1.00123;stop-color:#000"/><circle cx="328.83" cy="234.939" r="7.857" style="fill:#fff;fill-opacity:.315383;stroke-width:.950319;stop-color:#000"/><circle cx="-321.684" cy="52.53" r="4.544" style="fill:#fff;fill-opacity:.471128;stroke-width:.54956;stop-color:#000" transform="scale(-1 1)"/><circle cx="194.236" cy="253.689" r="2.678" style="fill:#fff;fill-opacity:.471128;stroke-width:.32392;stop-color:#000"/><circle cx="211.569" cy="227.843" r="2.678" style="fill:#fff;fill-opacity:.471128;stroke-width:.32392;stop-color:#000"/><circle cx="128.848" cy="25.286" r="10.214" style="fill:#fff;fill-opacity:.471128;stroke-width:1.23537;stop-color:#000"/><circle cx="61.626" cy="86.977" r="13.884" style="fill:#fff;fill-opacity:.471128;stroke-width:1.67924;stop-color:#000"/><circle cx="168.699" cy="17.809" r="4.544" style="fill:#fff;fill-opacity:.471128;stroke-width:.54956;stop-color:#000"/><circle cx="162.464" cy="60" r="7.464" style="fill:#fff;fill-opacity:.668041;stroke-width:.902719;stop-color:#000"/><circle cx="70" cy="123.143" r="7.857" style="fill:#fff;fill-opacity:.471128;stroke-width:.950319;stop-color:#000"/><circle cx="546.724" cy="183.688" r="7.941" style="fill:#fff;fill-opacity:.21758245;stroke-width:.96056;stop-color:#000"/><circle cx="441.551" cy="258.79" r="7.857" style="fill:#fff;fill-opacity:.471128;stroke-width:.950319;stop-color:#000"/><circle cx="121.019" cy="274.922" r="4.544" style="fill:#fff;fill-opacity:.36822534;stroke-width:.54956;stop-color:#000"/><circle cx="399.062" cy="8.072" r="6.12" style="fill:#fff;fill-opacity:.471128;stroke-width:.740254;stop-color:#000"/><circle cx="433.544" cy="28" r="3.544" style="fill:#fff;fill-opacity:.66416341;stroke-width:.428612;stop-color:#000"/><circle cx="-292.77" cy="64.881" r="7.857" style="fill:#fff;fill-opacity:.471128;stroke-width:.950319;stop-color:#000" transform="scale(-1 1)"/><circle cx="301.893" cy="260.998" r="4.544" style="fill:#fff;fill-opacity:.471128;stroke-width:.54956;stop-color:#000"/><circle cx="314.577" cy="283.126" r="2.678" style="fill:#fff;fill-opacity:.471128;stroke-width:.32392;stop-color:#000"/><path d="M75.51 14.82h79.473v79.473H75.51z" style="display:inline;fill:none;fill-opacity:1;stroke:none;stroke-width:.7761;stroke-linecap:butt;stroke-linejoin:miter;stroke-miterlimit:4;stroke-dasharray:none;stroke-dashoffset:0;stroke-opacity:1;marker:none;marker-start:none;marker-mid:none;marker-end:none;paint-order:normal;enable-background:new" transform="translate(-40 20)"/><circle cx="89.236" cy="125.689" r="2.678" style="fill:#fff;fill-opacity:.471128;stroke-width:.32392;stop-color:#000"/><path fill="none" d="M273.997 1174.322h128v128h-128z" style="display:inline;overflow:visible;visibility:visible;fill:#000;fill-opacity:0;fill-rule:nonzero;stroke:none;stroke-width:.5;marker:none;filter:url(#f);enable-background:accumulate" transform="translate(156.003 -1164.322)"/><path fill="none" d="M273.997 1174.322h128v128h-128z" style="display:inline;overflow:visible;visibility:visible;fill:#000;fill-opacity:0;fill-rule:nonzero;stroke:none;stroke-width:.5;marker:none;filter:url(#g);enable-background:accumulate" transform="translate(-243.997 -1014.322)"/><path fill="none" d="M273.997 1174.322h128v128h-128z" style="display:inline;overflow:visible;visibility:visible;fill:#000;fill-opacity:0;fill-rule:nonzero;stroke:none;stroke-width:.5;marker:none;filter:url(#h);enable-background:accumulate" transform="translate(-243.997 -1164.322)"/><path fill="none" d="M273.997 1174.322h128v128h-128z" style="display:inline;overflow:visible;visibility:visible;fill:#000;fill-opacity:0;fill-rule:nonzero;stroke:none;stroke-width:.5;marker:none;filter:url(#i);enable-background:accumulate" transform="translate(156.003 -1014.322)"/><path d="M20 24c-4.417 0-8 3.58-8 7.997v76.67c0 4.453 3.567 8.037 8 8.037h88c4.433 0 8-3.584 8-8.037v-76.67A7.998 7.998 0 0 0 108 24z" style="fill:#f3f2f0;fill-opacity:1;stroke-width:1.14515" transform="translate(236 74)"/><path fill="#2e3436" d="M68.078 22.777a7.996 7.996 0 1 1-8 8c0-4.42 3.592-8 8-8zm-24.064 28h12v36h8v-16c0-2.2 1.8-4 4-4s4 1.8 4 4v16h8v-36h12v-8h-48zm0 0" style="fill:gray;fill-opacity:1;stroke-width:4" transform="translate(231.987 89.575)"/><path fill="url(#paint1_linear_1_47)" d="M16.013 93.092v11.297c0 4.453 3.566 8.036 8 8.036h88c4.433 0 8-3.583 8-8.036V93.092c0 4.454-3.567 8.036-8 8.036h-88c-4.434 0-8-3.582-8-8.036z" style="fill:url(#j);fill-opacity:1;stroke-width:1.148" transform="translate(231.987 89.575)"/><path d="M20 24c-4.417 0-8 3.58-8 7.997v76.67c0 4.453 3.567 8.037 8 8.037h88c4.433 0 8-3.584 8-8.037v-76.67A7.998 7.998 0 0 0 108 24z" style="fill:#f3f2f0;fill-opacity:1;stroke-width:1.14515" transform="translate(430 148)"/><path fill="url(#paint1_linear_1_47)" d="M16.013 93.092v11.297c0 4.453 3.566 8.036 8 8.036h88c4.433 0 8-3.583 8-8.036V93.092c0 4.454-3.567 8.036-8 8.036h-88c-4.434 0-8-3.582-8-8.036z" style="fill:url(#k);fill-opacity:1;stroke-width:1.148" transform="translate(425.987 163.574)"/><path d="M47.74 22.777v59.49l13.624-13.32 7.789 15.903c1.918 4.306 11.832.84 9.014-4.91l-7.712-16.502 17.832-.118zm0 0" style="fill:gray;fill-opacity:1;fill-rule:nonzero;stroke:none;stroke-width:4.0547" transform="translate(425.987 163.574)"/><path d="M20 24c-4.417 0-8 3.58-8 7.997v76.67c0 4.453 3.567 8.037 8 8.037h88c4.433 0 8-3.584 8-8.037v-76.67A7.998 7.998 0 0 0 108 24z" style="fill:#f3f2f0;fill-opacity:1;stroke-width:1.14515" transform="translate(430 -2)"/><path fill="url(#paint1_linear_1_47)" d="M16.013 93.092v11.297c0 4.453 3.566 8.036 8 8.036h88c4.433 0 8-3.583 8-8.036V93.092c0 4.454-3.567 8.036-8 8.036h-88c-4.434 0-8-3.582-8-8.036z" style="fill:url(#l);fill-opacity:1;stroke-width:1.148" transform="translate(425.987 13.574)"/><path d="M62.452 26.782a20.317 20.317 0 0 0-20.776 19.84 3.335 3.335 0 0 0-.033.397v.032a4.052 4.052 0 0 0 4.057 4.025 4.049 4.049 0 0 0 4.057-4.025v-.032a12.118 12.118 0 0 1 10.285-11.98 12.114 12.114 0 0 1 13.469 8.288 12.118 12.118 0 0 1-6.098 14.597l.3-.142c-4.198 1.712-6.612 5.071-7.797 7.89-1.189 2.804-1.712 5.056-2.596 6.451-1.461 2.264-3.506 2.771-5.06 2.475-1.553-.304-2.503-.876-2.503-3.205v-4.09a4.069 4.069 0 0 0-4.057-4.056 4.069 4.069 0 0 0-4.057 4.057v4.089c0 5.802 4.28 10.252 9.08 11.173 4.803.92 10.272-1.177 13.408-6.07 1.935-3.01 2.487-5.845 3.266-7.667.759-1.842 1.205-2.65 3.375-3.521l.159-.065.142-.081A20.334 20.334 0 0 0 81.248 40.84a20.334 20.334 0 0 0-18.796-14.058Zm23.343.715a4.057 4.057 0 0 0-2.251.665 4.049 4.049 0 0 0-1.205 5.61 24.301 24.301 0 0 1 0 26.513 4.065 4.065 0 0 0 6.816 4.422 32.496 32.496 0 0 0 0-35.356 4.065 4.065 0 0 0-3.36-1.854zm-23.867 11.44a8.114 8.114 0 1 0 0 16.228 8.114 8.114 0 1 0 0-16.228zm0 0" style="fill:gray;fill-opacity:1;fill-rule:nonzero;stroke:none;stroke-width:4.05698" transform="translate(425.987 13.574)"/><path d="M20 24c-4.417 0-8 3.58-8 7.997v76.67c0 4.453 3.567 8.037 8 8.037h88c4.433 0 8-3.584 8-8.037v-76.67A7.998 7.998 0 0 0 108 24z" style="fill:#f3f2f0;fill-opacity:1;stroke-width:1.14515" transform="translate(30 -2)"/><path fill="url(#paint1_linear_1_47)" d="M16.013 93.092v11.297c0 4.453 3.566 8.036 8 8.036h88c4.433 0 8-3.583 8-8.036V93.092c0 4.454-3.567 8.036-8 8.036h-88c-4.434 0-8-3.582-8-8.036z" style="fill:url(#m);fill-opacity:1;stroke-width:1.148" transform="translate(25.987 13.574)"/><path d="M46.014 30.777a10.072 10.072 0 0 0-10 10v28c0 5.468 4.532 10 10 10h44c5.468 0 10-4.532 10-10v-28c0-5.468-4.532-10-10-10zm0 8h4c1.108 0 2 .892 2 2v4c0 1.108-.892 2-2 2h-4a1.992 1.992 0 0 1-2-2v-4a1.984 1.984 0 0 1 2-2zm12 0h4c1.108 0 2 .892 2 2v4c0 1.108-.892 2-2 2h-4a1.992 1.992 0 0 1-2-2v-4c0-1.108.892-2 2-2zm12 0h4c1.108 0 2 .892 2 2v4c0 1.108-.892 2-2 2h-4a1.992 1.992 0 0 1-2-2v-4c0-1.108.892-2 2-2zm12 0h4c1.108 0 2 .892 2 2v4c0 1.108-.892 2-2 2h-4a1.992 1.992 0 0 1-2-2v-4c0-1.108.892-2 2-2zm-32 12h4c1.108 0 2 .892 2 2v4c0 1.108-.892 2-2 2h-4a1.992 1.992 0 0 1-2-2v-4c0-1.108.892-2 2-2zm12 0h4c1.108 0 2 .892 2 2v4c0 1.108-.892 2-2 2h-4a1.992 1.992 0 0 1-2-2v-4c0-1.108.892-2 2-2zm12 0h4c1.108 0 2 .892 2 2v4c0 1.108-.892 2-2 2h-4a1.992 1.992 0 0 1-2-2v-4c0-1.108.892-2 2-2zm12 0h4c1.108 0 2 .892 2 2v4c0 1.108-.892 2-2 2h-4a1.992 1.992 0 0 1-2-2v-4c0-1.108.892-2 2-2zm-40 12h4c1.108 0 2 .892 2 2v4c0 1.108-.892 2-2 2h-4a1.992 1.992 0 0 1-2-2v-4c0-1.108.892-2 2-2zm12 0h16c1.108 0 2 .892 2 2v4c0 1.108-.892 2-2 2h-16a1.992 1.992 0 0 1-2-2v-4c0-1.108.892-2 2-2zm24 0h4c1.108 0 2 .892 2 2v4c0 1.108-.892 2-2 2h-4a1.992 1.992 0 0 1-2-2v-4c0-1.108.892-2 2-2zm0 0" style="fill:gray;fill-opacity:1;fill-rule:nonzero;stroke:none;stroke-width:4" transform="translate(25.987 13.574)"/><path d="M20 24c-4.417 0-8 3.58-8 7.997v76.67c0 4.453 3.567 8.037 8 8.037h88c4.433 0 8-3.584 8-8.037v-76.67A7.998 7.998 0 0 0 108 24z" style="fill:#f3f2f0;fill-opacity:1;stroke-width:1.14515" transform="translate(30 148)"/><path fill="url(#paint1_linear_1_47)" d="M16.013 93.092v11.297c0 4.453 3.566 8.036 8 8.036h88c4.433 0 8-3.583 8-8.036V93.092c0 4.454-3.567 8.036-8 8.036h-88c-4.434 0-8-3.582-8-8.036z" style="fill:url(#n);fill-opacity:1;stroke-width:1.148" transform="translate(25.987 163.574)"/><path d="M68.012 29.966a33.074 33.074 0 0 0-32 24.844 33.09 33.09 0 0 0 32 24.78 33.07 33.07 0 0 0 32.003-24.862 33.095 33.095 0 0 0-32.003-24.762Zm0 8.27c9.143 0 16.54 7.398 16.54 16.541 0 9.14-7.397 16.542-16.54 16.542-9.14 0-16.542-7.403-16.542-16.542 0-9.143 7.403-16.54 16.542-16.54zm0 8.27a8.266 8.266 0 0 0-8.271 8.271 8.27 8.27 0 1 0 16.541 0 8.263 8.263 0 0 0-8.27-8.27z" style="fill:gray;fill-opacity:1;fill-rule:nonzero;stroke:none;stroke-width:4.13529" transform="translate(25.987 163.574)"/></svg>