<svg xmlns="http://www.w3.org/2000/svg" xmlns:xlink="http://www.w3.org/1999/xlink" width="600" height="300"><defs><linearGradient id="o"><stop offset="0" stop-color="#154c90"/><stop offset=".073" stop-color="#3180e1"/><stop offset=".134" stop-color="#1a5fb4"/><stop offset=".769" stop-color="#1a5fb4"/><stop offset=".891" stop-color="#3985e2"/><stop offset="1" stop-color="#0e3360"/></linearGradient><linearGradient id="p"><stop offset="0" stop-color="#3f8ae6"/><stop offset="1" stop-color="#1a5fb4"/></linearGradient><linearGradient id="e"><stop offset="0" stop-color="#a3a3a3"/><stop offset=".472" stop-color="#e8e7e6"/><stop offset="1" stop-color="#aeaeae"/></linearGradient><linearGradient id="l"><stop offset="0" stop-color="#c0bfbc"/><stop offset=".407" stop-color="#d1d0ce"/><stop offset="1" stop-color="#c0bfbc"/></linearGradient><linearGradient id="c"><stop offset="0" stop-color="#77767b"/><stop offset=".317" stop-color="#a2a2a6"/><stop offset="1" stop-color="#77767b"/></linearGradient><linearGradient id="b" x1="147.31" x2="185.85" y1="830.88" y2="869.42" gradientTransform="translate(351.45 336.28)" gradientUnits="userSpaceOnUse"><stop offset="0" stop-color="#f2f2f2"/><stop offset="1" stop-color="gray" stop-opacity=".8"/></linearGradient><linearGradient id="h"><stop offset="0" stop-color="#d0bb8e"/><stop offset="1" stop-color="#fff"/></linearGradient><linearGradient id="i"><stop offset="0" stop-color="#5e5c64"/><stop offset="1" stop-color="#9a9996"/></linearGradient><linearGradient id="j"><stop offset="0" stop-color="#9a9996"/><stop offset=".533" stop-color="#deddda"/><stop offset="1" stop-color="#f6f5f4"/></linearGradient><linearGradient id="g"><stop offset="0" stop-color="#77767b"/><stop offset=".075" stop-color="#9a9996"/><stop offset=".445" stop-color="#deddda"/><stop offset=".834" stop-color="#b9b8b8"/><stop offset="1" stop-color="#77767b"/></linearGradient><linearGradient id="f"><stop offset="0" stop-color="#3d3846"/><stop offset=".317" stop-color="#a2a2a6"/><stop offset="1" stop-color="#3d3846"/></linearGradient><linearGradient id="d"><stop offset="0" stop-color="#77767b"/><stop offset=".317" stop-color="#9a9996"/><stop offset="1" stop-color="#3d3846"/></linearGradient><linearGradient id="k"><stop offset="0" stop-color="#5e5c64"/><stop offset=".317" stop-color="#9a9996"/><stop offset="1" stop-color="#5e5c64"/></linearGradient><linearGradient xlink:href="#a" id="q" x1="1275.703" x2="281.122" y1="760" y2="760" gradientTransform="matrix(.3 0 0 .3 4.6 -10.628)" gradientUnits="userSpaceOnUse"/><linearGradient id="a"><stop offset="0" stop-color="#1c71d8"/><stop offset="1" stop-color="#33d17a"/></linearGradient><linearGradient xlink:href="#b" id="v" x1="175.59" x2="175.59" y1="822.553" y2="881.22" gradientTransform="translate(16.112 15.667) scale(.27273)" gradientUnits="userSpaceOnUse"/><linearGradient xlink:href="#c" id="B" x1="1574.435" x2="1648.121" y1="213.236" y2="213.236" gradientUnits="userSpaceOnUse"/><linearGradient xlink:href="#d" id="C" x1="1589.498" x2="1690.939" y1="211.155" y2="211.155" gradientUnits="userSpaceOnUse"/><linearGradient xlink:href="#e" id="H" x1="1592.402" x2="1637.724" y1="350.835" y2="350.835" gradientUnits="userSpaceOnUse"/><linearGradient xlink:href="#f" id="s" x1="60" x2="68" y1="199.856" y2="199.856" gradientTransform="translate(7.505 20.47) scale(.89344)" gradientUnits="userSpaceOnUse"/><linearGradient xlink:href="#g" id="t" x1="58" x2="70" y1="189" y2="189" gradientTransform="translate(6.715 16.34) scale(.90637)" gradientUnits="userSpaceOnUse"/><linearGradient xlink:href="#h" id="w" x1="128.817" x2="158.518" y1="-97.698" y2="-127.399" gradientTransform="scale(.22079 .15613) rotate(-45 914.066 77.786)" gradientUnits="userSpaceOnUse"/><linearGradient xlink:href="#i" id="x" x1="115" x2="115" y1="183" y2="174" gradientTransform="matrix(1.58 0 0 1 -97.106 -104)" gradientUnits="userSpaceOnUse"/><linearGradient xlink:href="#j" id="y" x1="110" x2="110" y1="182" y2="174" gradientTransform="translate(-29.333 -104)" gradientUnits="userSpaceOnUse"/><linearGradient xlink:href="#c" id="z" x1="1574.435" x2="1648.121" y1="213.236" y2="213.236" gradientUnits="userSpaceOnUse"/><linearGradient xlink:href="#c" id="A" x1="1574.435" x2="1648.121" y1="213.236" y2="213.236" gradientUnits="userSpaceOnUse"/><linearGradient xlink:href="#k" id="D" x1="1574.435" x2="1648.121" y1="213.236" y2="213.236" gradientTransform="translate(24.42)" gradientUnits="userSpaceOnUse"/><linearGradient xlink:href="#l" id="E" x1="1575.074" x2="1663.814" y1="300.139" y2="300.139" gradientTransform="translate(24.42)" gradientUnits="userSpaceOnUse"/><linearGradient xlink:href="#l" id="F" x1="1575.074" x2="1663.814" y1="300.139" y2="300.139" gradientTransform="translate(24.42)" gradientUnits="userSpaceOnUse"/><linearGradient xlink:href="#m" id="L" x1="-286.833" x2="-286.833" y1="550.167" y2="513.5" gradientTransform="matrix(3.375 0 0 1.5 1001.163 -592.157)" gradientUnits="userSpaceOnUse"/><linearGradient id="m"><stop offset="0" stop-color="#294172"/><stop offset="1" stop-color="#3c6eb4"/></linearGradient><linearGradient xlink:href="#n" id="M" x1="90" x2="90" y1="180" y2="145" gradientTransform="matrix(1.5 0 0 1.5 -71.9 -151.907)" gradientUnits="userSpaceOnUse"/><linearGradient id="n"><stop offset="0" stop-color="#62a0ea"/><stop offset="1" stop-color="#99c1f1"/></linearGradient><linearGradient xlink:href="#m" id="N" x1="-240.167" x2="-240.167" y1="557.562" y2="523.5" gradientTransform="matrix(1.5 0 0 1.5 450.85 -592.157)" gradientUnits="userSpaceOnUse"/><linearGradient xlink:href="#o" id="K" x1="-278.5" x2="-173.5" y1="579.597" y2="579.597" gradientTransform="matrix(1.5 0 0 1.5 450.85 -592.157)" gradientUnits="userSpaceOnUse"/><clipPath id="r" clipPathUnits="userSpaceOnUse"><path fill="#c0bfbc" stroke-dashoffset="26.4" stroke-linecap="square" stroke-linejoin="round" stroke-width="2" d="m355 675-35 35h-74c-8.864 0-16 7.136-16 16v138c0 8.864 7.136 16 16 16h74l35-35 35 35h134c8.864 0 16-7.136 16-16V726c0-8.864-7.136-16-16-16H390z"/></clipPath><clipPath id="G" clipPathUnits="userSpaceOnUse"><ellipse cx="1615.072" cy="332.343" fill="#9141ac" stroke-opacity=".957" stroke-width="2" rx="34.171" ry="24.497"/></clipPath><radialGradient xlink:href="#p" id="I" cx="1614.563" cy="343.175" r="34.171" fx="1614.563" fy="343.175" gradientTransform="matrix(1 0 0 .7169 0 92.203)" gradientUnits="userSpaceOnUse"/><filter id="u" width="1.12" height="1.12" x="-.06" y="-.06" color-interpolation-filters="sRGB"><feGaussianBlur stdDeviation="1.2"/></filter></defs><path fill="url(#q)" d="M66.6 61.732v.56a35.08 35.08 45 0 0 35.08 35.08h17.948a8 8 45 0 1 8 8v3.28a8 8 135 0 1-8 8H45.68a35.08 35.08 135 0 0-35.08 35.08v.56a35.08 35.08 45 0 0 35.08 35.08H148a8 8 45 0 1 8 8v2a8 8 135 0 1-8 8h-4.32a35.08 35.08 135 0 0-35.08 35.08v.56a35.08 35.08 45 0 0 35.08 35.08h377.84a35.08 35.08 135 0 0 35.08-35.08v-.56a35.08 35.08 45 0 0-35.08-35.08H276a8 8 45 0 1-8-8v-2a8 8 135 0 1 8-8h79.52a35.08 35.08 135 0 0 35.08-35.08v-.56a35.08 35.08 45 0 0-35.08-35.08h-21.303a9.617 9.617 45 0 1-9.617-9.617v-.046a9.617 9.617 135 0 1 9.617-9.617h7.303a35.08 35.08 135 0 0 35.08-35.08v-.56a35.08 35.08 45 0 0-35.08-35.08H101.68a35.08 35.08 135 0 0-35.08 35.08z"/><g transform="translate(0 -635)"><path fill="#c0bfbc" d="m355 675-35 35h-74c-8.864 0-16 7.136-16 16v138c0 8.864 7.136 16 16 16h74l35-35 35 35h134c8.864 0 16-7.136 16-16V726c0-8.864-7.136-16-16-16H390z"/><path fill="#9a9996" d="M292 835h28l35-35 35 35h10v45h-10l-35-35-35 35h-28z"/><path fill="#57e389" d="M292.5 833v-30l-25-25v-68H320l35-35 35 35h50l-5 115-45 5-35-32-35 32z"/><path fill="none" stroke="#fff" stroke-width="5" d="M337.5 812v-67.5"/><path fill="#c0bfbc" d="M272 762.5h48l35-35 35 35h17V710h-17l-35-35-35 35h-50z"/><path fill="none" stroke="#fff" stroke-width="5" d="M272 762.5h48l35-35 35 35h150"/><g fill="#62a0ea" clip-path="url(#r)"><path d="M531.95 688v29a8 8 135 0 1-8 8H523a8 8 135 0 0-8 8v4a8 8 135 0 1-8 8h-29a8 8 45 0 1-8-8v-19a8 8 135 0 1 8-8h4a8 8 135 0 0 8-8v-14a8 8 135 0 1 8-8h25.95a8 8 45 0 1 8 8zM590 783v64a8 8 135 0 1-8 8h-19a8 8 135 0 0-8 8v24a8 8 135 0 1-8 8h-69a8 8 45 0 1-8-8v-54a8 8 135 0 1 8-8h14a8 8 135 0 0 8-8v-34a8 8 135 0 1 8-8h74a8 8 45 0 1 8 8zm-297.5 20v30H186.05V697.82L267.5 710v68z"/></g><path fill="none" stroke="#f8e45c" stroke-width="10" d="M267.5 710v68l25 25v30"/><path fill="#9a9996" d="M400 750h-10l-15-15v-20l15 15h10z"/><path fill="none" stroke="#f8e45c" stroke-width="10" d="M435 710v100a20 20 135 0 1-20 20h-25l-35-32-35 32h-90"/><path fill="#9a9996" d="m327 743 8-8v-25l-8 8zm13-13 10-10v-15l-10 10zm0-20 10-10v-15l-10 10z"/><path fill="#fff" d="m320 880 35-35V675l-35 35z" opacity=".38"/><path fill="#3d3846" d="m390 880-35-35V675l35 35z" opacity=".16"/><path fill="none" stroke="#fff" stroke-width="5" d="M407.5 765v-55"/><path fill="#9a9996" d="M465 785h10v10h-10zm7.5-15h15v10h-15zm-7.5 30h22.5v15H465zm-15-55h15v10h-15zm0-25h10v20h-10zm70 25h15v10h-15zm0-15h15v10h-15zM410 845h10v10h-10zm15-5h20v15h-20z"/><path fill="none" stroke="#fff" stroke-width="5" d="M265 862.5h55l35-35 35 35h70M292.5 880v-45m-25 45v-45m190 45V762"/><path fill="#9a9996" d="M415 870h20v10h-20zm55-120h10v5h-10zm-235 90h25v15h-25z"/><path fill="none" stroke="#fff" stroke-width="5" d="M402.5 880v-45"/><circle cx="412.5" cy="805" r="10" fill="#2ec27e"/><circle cx="412.5" cy="780" r="10" fill="#2ec27e"/><path fill="#9a9996" d="M275 840h10v15h-10zm125-120h-10l-20-20v-10l20 20h10z"/><path fill="#2ec27e" d="M415 710h10v40h-10z"/><path fill="#9a9996" d="M280 745h10v10h-10zm15-10h15v20h-15z"/><circle cx="300" cy="780" r="5" fill="#2ec27e"/></g><g stroke-width="3.333" transform="translate(237.628 -124.688) scale(.74954)"><circle cx="64.723" cy="186.738" r="12.689" fill="none" stroke="#77767b" stroke-linejoin="round" stroke-width="5.337" enable-background="new"/><path fill="url(#s)" d="M61.111 190.222h7.148v17.869h-7.148z" enable-background="new"/><path fill="url(#t)" d="M59.284 183.113H70.16v9.064H59.284z" enable-background="new"/><path d="M61.097 192.177h7.251v1.813h-7.251z" enable-background="new" opacity=".2"/><path d="M62.91 183.113v7.251h-1.813v-7.251zm3.625 0v7.251h-1.813v-7.251zm3.626 0v7.251h-1.813v-7.251z" enable-background="new" opacity=".392"/><circle cx="64" cy="258.117" r="46" fill-opacity=".239" enable-background="new"/><circle cx="64" cy="253.887" r="46" fill="#3d3846" enable-background="new"/><circle cx="64" cy="250" r="46" fill="#77767b" enable-background="new"/><circle cx="64" cy="250" r="42" fill="#77767b" enable-background="new"/><circle cx="-147.774" cy="219.223" r="39.682" fill="#fff" enable-background="new" transform="scale(1 -1) rotate(-15 -1823.939 -819.682)"/><g transform="rotate(30 64 250.305)"><g fill="#fff" fill-rule="evenodd"><path fill="#9a9996" d="m64.03 285.651 8.306-31.225H55.723z" enable-background="new"/><path fill="#5e5c64" fill-opacity=".373" d="m64.032 285.643 8.304-31.217h-8.304z" enable-background="new"/></g><g fill-rule="evenodd"><path fill="#1a1a1a" fill-opacity=".4" d="m527.04 1123.5-24 48h48z" enable-background="new" filter="url(#u)" transform="matrix(.24993 0 0 .31164 -67.726 -117.645)"/><path fill="#ed333b" d="m64 214.958-8.307 31.225h16.614z" enable-background="new"/><path fill="#fff" fill-opacity=".373" d="m63.998 214.967-8.305 31.216h8.305z" enable-background="new"/></g><circle cx="64" cy="250" r="12" fill="url(#v)" enable-background="new"/><circle cx="64" cy="-249" r="11" fill="#ccc" enable-background="new" transform="scale(1 -1)"/></g></g><path fill-opacity=".159" d="m405 207.964 6.238.891 6.237.89 58.537 58.538 2.388 2.388 2.375 2.375a5.03 5.03 0 0 1 0 7.13l-3.564 3.562a5.028 5.028 0 0 1-7.127 0l-4.135-4.133-1.804-1.806-57.362-57.362-.89-6.236z" enable-background="new" style="marker:none"/><g stroke-width="3.333"><path fill="url(#w)" d="M48 77v-6l4-3v12z" enable-background="new" style="marker:none" transform="rotate(45 100.458 569.687) scale(1.26005)"/><path fill="url(#x)" d="M118.406 68h4.64c2.216 0 4 1.784 4 4v4c0 2.216-1.784 4-4 4h-4.64c-2.216 0-4-1.784-4-4v-4c0-2.216 1.784-4 4-4z" transform="rotate(45 100.458 569.687) scale(1.26005)"/><path fill="#424048" d="m405.523 200.96 6.237.891-5.346 5.346z" enable-background="new" style="marker:none"/><g stroke-width="4.26"><path fill="#62a0ea" d="m408.73 212.009 7.841-7.841 58.522 58.522-7.84 7.84z" enable-background="new"/><path fill="#99c1f1" d="m414.433 206.306 3.564-3.564 58.536 58.537-3.578 3.549z" enable-background="new"/><path fill="#1c71d8" d="m410.87 209.87-3.565 3.564 58.537 58.537 3.549-3.58z" enable-background="new"/></g><path fill="url(#y)" d="M116.379 68h4v12h-4z" transform="rotate(45 100.458 569.687) scale(1.26005)"/></g><path fill-opacity=".219" d="M487.688 8.077c-6.779 0-12.274 3.838-12.273 8.572.081.059.164.117.248.174h-.248v10.25c-2.416.409-4.605 1.256-6.365 2.441-3.996 2.763-15.329 8.951-15.329 8.951-2.671 1.543-4.609 4.385-4.609 7.285v33.428c0 3.46 2.445 6.51 6.162 8.313v1.213h.018c.014 1.081.257 2.121.67 3.111a16.92 16.92 0 0 0-2.862 2.05l.145.104h-.115v2.966a4.75 4.75 0 0 0-.03.021l.03.021v1.067l1.488 4.935c.717 6.47 7.884 11.61 16.91 12.123 9.025-.515 16.191-5.653 16.908-12.123l1.547-4.935v-4.075h-.174l.145-.103a16.919 16.919 0 0 0-2.746-1.969 8.41 8.41 0 0 0 .66-2.754h1.719c.53.044 1.063.067 1.597.066 7.728 0 13.994-4.49 13.994-10.03h.11V67.77a5.65 5.65 0 0 0 .818-.014v11.422h.11c0 5.54 6.264 10.031 13.992 10.031.534 0 1.069-.022 1.6-.066h.849c-.805 1.508-1.218 3.108-1.219 4.723v.103h-.03v9.01h.09c.79 6.851 8.777 12.123 18.366 12.123s17.574-5.272 18.363-12.123h.036v-.367a8.99 8.99 0 0 0 0-1.441v-6.585c.018-.24.028-.48.03-.72 0-2.171-.748-4.308-2.175-6.223v-.152c3.718-1.803 6.162-4.853 6.162-8.313V45.75c0-2.9-1.937-5.742-4.609-7.285 0 0-11.333-6.188-15.328-8.95-1.76-1.186-3.95-2.033-6.365-2.442v-10.25h-.006c0-.058.004-.116.004-.174 0-4.734-5.494-8.572-12.272-8.572-6.779 0-12.274 3.837-12.273 8.572v.174h-.026v20.066h.024c.006.392.049.784.13 1.172l-1.779 1.303c-.963-1.2-2.517-1.912-4.174-1.912-1.616 0-3.139.679-4.107 1.832l-2.482-1.815c.289-.184.565-.377.828-.58h.134V16.822h-.27a7.34 7.34 0 0 0 .249-.173c0-4.734-5.495-8.573-12.274-8.572z"/><g stroke-width="2.442" transform="translate(-158.707 -39.028) scale(.4095)"><g id="J" stroke-opacity=".957" stroke-width="4.884" transform="translate(65.484)"><ellipse cx="1600.026" cy="124.179" fill="#c0bfbc" rx="29.971" ry="20.932"/><ellipse cx="1600.012" cy="173.41" fill="url(#z)" rx="29.957" ry="21.025" style="font-variation-settings:normal"/><path fill="#c0bfbc" d="M1570 124.605h60v25h-60z"/><path fill="url(#A)" d="M1570 145.605h60v28h-60z" style="font-variation-settings:normal"/><ellipse cx="1599.997" cy="145.581" fill="url(#B)" rx="29.942" ry="21.025" style="font-variation-settings:normal"/><path fill="url(#C)" d="M1622.143 148.953c-8.324 0-16.008 2.146-21.973 5.738l-34.77 25.418c-3.983 3.649-8.351 8.698-8.351 14.458v82.31h137.181v-81.629c0-7.083-4.729-14.026-11.253-17.793 0 0-27.677-15.11-37.434-21.857-6.142-4.137-14.4-6.645-23.4-6.645z"/><path fill="#3d3846" d="M1622.143 230.582c-8.324 0-16.008 2.145-21.973 5.737l-34.77 25.418c-4.683 3.76-8.007 10.188-8.084 15.14.001 13.529 15.3 24.496 34.17 24.496a47.54 47.54 0 0 0 3.905-.16h60.773a47.75 47.75 0 0 0 3.897.16c18.87 0 34.169-10.967 34.17-24.496-.932-8.63-5.519-14.149-11.255-17.793 0 0-27.676-15.11-37.433-21.857-6.143-4.137-14.4-6.645-23.4-6.645z"/><path fill="url(#D)" d="M1639.297 252.018c-21.983 0-39.802 12.514-39.802 27.95V280h-.074v20.139h.074c.203 15.334 17.974 27.69 39.824 27.69 21.849-.002 39.617-12.357 39.82-27.69h.043V280h-.08v-.031c0-15.437-17.82-27.952-39.804-27.951z" style="font-variation-settings:normal"/><ellipse cx="1639.492" cy="312.744" fill="url(#E)" rx="45" ry="32.261"/><path fill="url(#F)" d="M1594.42 313h90v22h-90z" style="font-variation-settings:normal"/><ellipse cx="1639.492" cy="332.343" fill="#888784" rx="45" ry="32.261"/><g clip-path="url(#G)" transform="translate(24.42)"><ellipse cx="1615.072" cy="332.343" fill="url(#H)" rx="34.171" ry="24.497"/><ellipse cx="1615.391" cy="325.694" fill="url(#I)" rx="34.171" ry="24.497"/></g></g><use xlink:href="#J" width="100%" height="100%" transform="matrix(-1 0 0 1 3243.066 0)"/><ellipse cx="1621.324" cy="186.14" fill="#d0cfcd" rx="12.528" ry="11.158"/><path fill="#d0cfcd" d="M1608.772 185.082h25.081v40.062h-25.081z"/><path fill="#cfcecc" d="M1608.772 223.012h25.081v14.926h-25.081z"/><ellipse cx="1621.312" cy="222.999" fill="#cfcecb" rx="12.516" ry="11.208"/><ellipse cx="1621.318" cy="237.833" fill="#a7a7ab" rx="12.523" ry="11.208"/></g><rect width="202.5" height="90" x="10.6" y="180.593" fill="#182744" rx="18" ry="18" style="stroke-width:1.5"/><rect width="157.5" height="105" x="33.1" y="177.093" fill="url(#K)" rx="24" ry="24" style="fill:url(#K);stroke-width:1.5"/><rect width="11.549" height="18.411" x="28.273" y="252.183" fill="#182744" rx="0" ry="0" style="stroke-width:1.5"/><rect width="11.549" height="18.411" x="184.048" y="252.183" fill="#182744" rx="0" ry="0" style="stroke-width:1.5"/><rect width="202.5" height="90" x="10.6" y="170.593" fill="url(#L)" rx="18" ry="18" style="fill:url(#L);stroke-width:1.5"/><rect width="52.5" height="60" x="85.6" y="50.593" fill="none" stroke="#294172" stroke-dashoffset="26.4" stroke-linecap="square" stroke-linejoin="round" stroke-width="12" rx="18" ry="18"/><rect width="157.5" height="150" x="33.1" y="65.593" fill="url(#M)" rx="37.5" ry="37.5" style="fill:url(#M);stroke-width:1.5"/><rect width="130.5" height="123" x="46.6" y="79.093" fill="none" stroke="#f6f5f4" stroke-dashoffset="26.4" stroke-linecap="square" stroke-linejoin="round" stroke-width="3" rx="24" ry="24"/><rect width="157.5" height="105" x="33.1" y="163.093" fill="#62a0ea" rx="24" ry="24" style="stroke-width:1.5"/><rect width="133.5" height="70.5" x="45.1" y="185.593" fill="url(#N)" rx="12" ry="12" style="fill:url(#N);stroke-width:1.5"/><path fill="none" stroke="#f6f5f4" stroke-width="3" d="M55.6 202.093h112.5"/><g fill="#deddda" transform="matrix(1.5 0 0 1.5 -71.9 -151.907)"><path d="m155 238-1.566 7.048A1.604 1.604 51.264 0 0 155 247h2a1.604 1.604 128.736 0 0 1.566-1.952L157 238Z"/><circle cx="156" cy="236" r="2" stroke="#9a9996" stroke-dashoffset="26.4" stroke-linecap="square" stroke-linejoin="round" stroke-width="2"/></g><g fill="#deddda" transform="matrix(1.5 0 0 1.5 -71.9 -151.907)"><path d="m78 208-1.566 7.048A1.604 1.604 51.264 0 0 78 217h2a1.604 1.604 128.736 0 0 1.566-1.952L80 208Z"/><circle cx="79" cy="206" r="2" stroke="#5e5c64" stroke-dashoffset="26.4" stroke-linecap="square" stroke-linejoin="round" stroke-width="2"/><path d="m78 208-1.566 7.048A1.604 1.604 51.264 0 0 78 217h2a1.604 1.604 128.736 0 0 1.566-1.952L80 208Z"/><circle cx="79" cy="206" r="2" stroke="#9a9996" stroke-dashoffset="26.4" stroke-linecap="square" stroke-linejoin="round" stroke-width="2"/></g><path d="M111.743 92.503c-21.823 0-39.391 17.568-39.391 39.39 0 21.824 17.568 39.393 39.39 39.393 21.824 0 39.393-17.57 39.393-39.392 0-21.823-17.57-39.391-39.392-39.391zm17.494 12.146c11.336 0-.71 16.147-7.086 16.147-6.377 0-4.25-16.147 7.086-16.147zm-17.516 1.977c5.58.02 1.98 12.369-1.308 12.168-3.397-.207-5.642-11.303.738-12.13.2-.027.39-.039.57-.038zm-11.053 4.39c3.98-.088 3.637 9.976.987 10.516-2.873.587-7.222-8.146-2.094-10.261.4-.166.77-.247 1.107-.254zm-8.171 6.846c3.12.105 4.468 8.184 2.355 9.114-2.415 1.062-7.901-5.79-3.797-8.625.513-.355.996-.504 1.442-.489zm23.439 5.243c5.28.089 9.55 1.82 10.123 5.22 1.838 10.922-26.047 14.91-15.547 22.905 3.298 2.51 6.665.586 6.154-3.309-.425-3.25 11.423-5.216 10.495-.305-1.215 6.441-7.71 11.524-13.34 11.524-11.446 0-22.416-13.309-20.272-22.903 1.98-8.865 13.587-13.281 22.387-13.132z" style="fill:#fff;stroke-width:.307746;opacity:.9"/></svg>