<svg xmlns="http://www.w3.org/2000/svg" xmlns:xlink="http://www.w3.org/1999/xlink" width="128" height="128" style="display:inline;enable-background:new" version="1.0"><defs><linearGradient xlink:href="#a" id="c" x1="20" x2="108" y1="238" y2="238" gradientTransform="translate(0 -172)" gradientUnits="userSpaceOnUse"/><linearGradient id="b" x1="0" x2="0" y1="0" y2="256" gradientTransform="translate(82.357 -19.774) scale(.54688)" gradientUnits="userSpaceOnUse"><stop offset="0%" style="stop-color:#1c71d8;stop-opacity:1"/><stop offset="100%" style="stop-color:#2ec27e;stop-opacity:1"/></linearGradient><linearGradient id="a"><stop offset="0" style="stop-color:#77767b;stop-opacity:1"/><stop offset=".05" style="stop-color:#c0bfbc;stop-opacity:1"/><stop offset=".1" style="stop-color:#9a9996;stop-opacity:1"/><stop offset=".9" style="stop-color:#9a9996;stop-opacity:1"/><stop offset=".95" style="stop-color:#c0bfbc;stop-opacity:1"/><stop offset="1" style="stop-color:#77767b;stop-opacity:1"/></linearGradient><linearGradient xlink:href="#b" id="d" x1="-35.475" x2="-35.475" y1="-3.681" y2="94.682" gradientTransform="translate(96.42 15.478)" gradientUnits="userSpaceOnUse"/><filter id="e" width="1.248" height="1.191" x="-.124" y="-.096" style="color-interpolation-filters:sRGB"><feGaussianBlur stdDeviation="2.548"/></filter></defs><rect width="88" height="58" x="20" y="62" rx="8.773" ry="8.018" style="vector-effect:none;fill:url(#c);fill-opacity:1;stroke:none;stroke-width:.0118497px;stroke-linecap:butt;stroke-linejoin:miter;stroke-miterlimit:4;stroke-dasharray:none;stroke-dashoffset:0;stroke-opacity:1;marker:none;marker-start:none;marker-mid:none;marker-end:none;paint-order:normal"/><rect width="88" height="106" x="20" y="8" rx="8.773" ry="7.869" style="vector-effect:none;fill:#deddda;fill-opacity:1;stroke:none;stroke-width:.0117395px;stroke-linecap:butt;stroke-linejoin:miter;stroke-miterlimit:4;stroke-dasharray:none;stroke-dashoffset:0;stroke-opacity:1;marker:none;marker-start:none;marker-mid:none;marker-end:none;paint-order:normal"/><rect width="80" height="98" x="24" y="12" rx="4" ry="4.002" style="display:inline;vector-effect:none;fill:url(#d);fill-opacity:1;stroke:none;stroke-width:.0119126px;stroke-linecap:butt;stroke-linejoin:miter;stroke-miterlimit:4;stroke-dasharray:none;stroke-dashoffset:0;stroke-opacity:1;marker:none;marker-start:none;marker-mid:none;marker-end:none;paint-order:normal;enable-background:new"/><path d="M64 29a4.933 4.933 0 0 0-4.923 4.923v42.27l-11.289-11.29a4.92 4.92 0 0 0-6.96 0 4.921 4.921 0 0 0 0 6.962l19.691 19.693a4.921 4.921 0 0 0 6.962 0l19.692-19.693a4.921 4.921 0 0 0 0-6.961 4.921 4.921 0 0 0-6.96 0l-11.29 11.288v-42.27A4.933 4.933 0 0 0 64 29z" style="display:inline;opacity:.3;mix-blend-mode:normal;fill:#000;fill-opacity:1;stroke-width:4.92308;filter:url(#e);enable-background:new" transform="matrix(1.05197 0 0 1.05197 -3.5 -3.074)"/><path d="M64 29a4.933 4.933 0 0 0-4.923 4.923v42.27l-11.289-11.29a4.92 4.92 0 0 0-6.961 0 4.921 4.921 0 0 0 0 6.962l19.692 19.693a4.921 4.921 0 0 0 6.962 0l19.692-19.693a4.921 4.921 0 0 0 0-6.961 4.921 4.921 0 0 0-6.961 0L68.923 76.192V33.923A4.933 4.933 0 0 0 64 29Z" style="opacity:1;fill:#deddda;stroke-width:4.92308;fill-opacity:1"/></svg>