<svg xmlns="http://www.w3.org/2000/svg" width="140" height="140"><defs><linearGradient id="a" x1="0" x2="0" y1="0" y2="256" gradientTransform="scale(.54688)" gradientUnits="userSpaceOnUse"><stop offset="0%" style="stop-color:#1c71d8;stop-opacity:1"/><stop offset="100%" style="stop-color:#2ec27e;stop-opacity:1"/></linearGradient></defs><rect width="140" height="140" fill="url(#a)" ry="70" style="fill:url(#a);stroke-width:.546875"/><path d="M70 32.199a4.715 4.715 0 0 0-4.725 4.725v4.725A4.715 4.715 0 0 0 70 46.375a4.715 4.715 0 0 0 4.726-4.726v-4.726A4.715 4.715 0 0 0 70 32.2zM46.405 41.67a4.714 4.714 0 0 0-3.34 1.393 4.714 4.714 0 0 0 0 6.682l3.34 3.341a4.714 4.714 0 0 0 6.682 0 4.714 4.714 0 0 0 0-6.682l-3.34-3.34a4.715 4.715 0 0 0-3.342-1.394zm47.19 0a4.715 4.715 0 0 0-3.341 1.393l-3.341 3.34a4.714 4.714 0 0 0 0 6.683 4.714 4.714 0 0 0 6.682 0l3.34-3.34a4.714 4.714 0 0 0 0-6.683 4.715 4.715 0 0 0-3.34-1.393zM70 51.1c-10.438 0-18.9 8.462-18.9 18.9S59.561 88.9 70 88.9c10.438 0 18.9-8.462 18.9-18.9 0-10.438-8.462-18.9-18.9-18.9zM36.923 65.275A4.715 4.715 0 0 0 32.2 70a4.715 4.715 0 0 0 4.725 4.726h4.725A4.715 4.715 0 0 0 46.375 70a4.715 4.715 0 0 0-4.726-4.725zm61.428 0A4.715 4.715 0 0 0 93.626 70a4.715 4.715 0 0 0 4.725 4.726h4.726A4.715 4.715 0 0 0 107.8 70a4.715 4.715 0 0 0-4.725-4.725zM49.516 85.53a4.701 4.701 0 0 0-3.111 1.384l-3.34 3.34a4.714 4.714 0 0 0 0 6.683 4.714 4.714 0 0 0 6.681 0l3.341-3.34a4.714 4.714 0 0 0 0-6.683 4.72 4.72 0 0 0-3.571-1.384zm40.508 0a4.701 4.701 0 0 0-3.111 1.384 4.714 4.714 0 0 0 0 6.682l3.34 3.34a4.714 4.714 0 0 0 6.683 0 4.714 4.714 0 0 0 0-6.681l-3.34-3.341a4.72 4.72 0 0 0-3.572-1.384zM69.75 93.626a4.716 4.716 0 0 0-4.476 4.725v4.726A4.715 4.715 0 0 0 70 107.8a4.715 4.715 0 0 0 4.726-4.725V98.35A4.715 4.715 0 0 0 70 93.626c-.082 0-.168-.004-.249 0z" style="opacity:.5;fill:#fff;fill-opacity:1;stroke-width:4.72519"/></svg>